<svg xmlns="http://www.w3.org/2000/svg" xmlns:xlink="http://www.w3.org/1999/xlink" width="375" zoomAndPan="magnify" viewBox="0 0 375 374.999991" height="374.999991" preserveAspectRatio="xMidYMid meet" version="1.0"><defs><g/><clipPath id="id1"><path d="M 114 185 L 126.917969 185 L 126.917969 204.839844 L 114 204.839844 Z M 114 185 " clip-rule="nonzero"/></clipPath><clipPath id="id2"><path d="M 71.347656 185 L 84 185 L 84 204.839844 L 71.347656 204.839844 Z M 71.347656 185 " clip-rule="nonzero"/></clipPath><clipPath id="id3"><path d="M 76 164.089844 L 121 164.089844 L 121 181 L 76 181 Z M 76 164.089844 " clip-rule="nonzero"/></clipPath></defs><path fill="rgb(26.269531%, 69.40918%, 29.40979%)" d="M 99.179688 148.839844 C 77.84375 148.839844 60.546875 166.136719 60.546875 187.472656 C 60.546875 208.808594 77.84375 226.105469 99.179688 226.105469 C 120.515625 226.105469 137.8125 208.808594 137.8125 187.472656 C 137.8125 166.136719 120.515625 148.839844 99.179688 148.839844 " fill-opacity="1" fill-rule="nonzero"/><g clip-path="url(#id1)"><path fill="rgb(10.978699%, 12.939453%, 12.548828%)" d="M 121.738281 204.601562 L 116.726562 203.839844 C 115.34375 203.628906 114.390625 202.335938 114.601562 200.957031 L 116.675781 187.414062 C 116.890625 186.035156 118.183594 185.085938 119.566406 185.296875 L 124.578125 186.058594 C 125.960938 186.273438 126.914062 187.5625 126.699219 188.941406 L 124.628906 202.484375 C 124.414062 203.867188 123.121094 204.8125 121.738281 204.601562 " fill-opacity="1" fill-rule="nonzero"/></g><g clip-path="url(#id2)"><path fill="rgb(10.978699%, 12.939453%, 12.548828%)" d="M 76.519531 204.601562 L 81.53125 203.839844 C 82.914062 203.628906 83.863281 202.335938 83.652344 200.957031 L 81.578125 187.414062 C 81.367188 186.035156 80.074219 185.085938 78.691406 185.296875 L 73.679688 186.058594 C 72.292969 186.273438 71.34375 187.5625 71.554688 188.941406 L 73.628906 202.484375 C 73.839844 203.867188 75.132812 204.8125 76.519531 204.601562 " fill-opacity="1" fill-rule="nonzero"/></g><path fill="rgb(10.978699%, 12.939453%, 12.548828%)" d="M 122.132812 189.199219 L 119.171875 189.199219 C 119.171875 177.988281 110.027344 168.863281 98.789062 168.863281 C 87.546875 168.863281 78.40625 177.988281 78.40625 189.199219 L 75.441406 189.199219 C 75.441406 176.355469 85.914062 165.910156 98.789062 165.910156 C 111.660156 165.910156 122.132812 176.355469 122.132812 189.199219 " fill-opacity="1" fill-rule="nonzero"/><g clip-path="url(#id3)"><path fill="rgb(10.978699%, 12.939453%, 12.548828%)" d="M 117.730469 180.925781 C 116.707031 180.925781 115.710938 180.398438 115.164062 179.453125 C 111.789062 173.632812 105.515625 170.019531 98.789062 170.019531 C 92.058594 170.019531 85.785156 173.632812 82.410156 179.453125 C 81.59375 180.863281 79.78125 181.347656 78.367188 180.53125 C 76.949219 179.714844 76.46875 177.90625 77.285156 176.492188 C 79.429688 172.796875 82.511719 169.699219 86.195312 167.53125 C 90 165.292969 94.351562 164.113281 98.789062 164.113281 C 103.222656 164.113281 107.578125 165.292969 111.378906 167.53125 C 115.066406 169.699219 118.144531 172.796875 120.289062 176.492188 C 121.109375 177.90625 120.625 179.714844 119.210938 180.53125 C 118.742188 180.800781 118.230469 180.925781 117.730469 180.925781 " fill-opacity="1" fill-rule="nonzero"/></g><path fill="rgb(10.978699%, 12.939453%, 12.548828%)" d="M 82.953125 196.347656 L 82.632812 196.347656 C 82.484375 196.347656 82.367188 196.230469 82.367188 196.085938 L 82.367188 192.050781 C 82.367188 191.90625 82.484375 191.789062 82.632812 191.789062 L 82.953125 191.789062 C 83.101562 191.789062 83.21875 191.90625 83.21875 192.050781 L 83.21875 196.085938 C 83.21875 196.230469 83.101562 196.347656 82.953125 196.347656 " fill-opacity="1" fill-rule="nonzero"/><path fill="rgb(10.978699%, 12.939453%, 12.548828%)" d="M 84.425781 200.191406 L 84.273438 200.191406 C 84.078125 200.191406 83.921875 200.035156 83.921875 199.84375 L 83.921875 188.292969 C 83.921875 188.101562 84.078125 187.945312 84.273438 187.945312 L 84.425781 187.945312 C 84.617188 187.945312 84.773438 188.101562 84.773438 188.292969 L 84.773438 199.84375 C 84.773438 200.035156 84.617188 200.191406 84.425781 200.191406 " fill-opacity="1" fill-rule="nonzero"/><path fill="rgb(10.978699%, 12.939453%, 12.548828%)" d="M 85.980469 198.824219 L 85.828125 198.824219 C 85.636719 198.824219 85.476562 198.667969 85.476562 198.472656 L 85.476562 189.664062 C 85.476562 189.46875 85.636719 189.3125 85.828125 189.3125 L 85.980469 189.3125 C 86.175781 189.3125 86.332031 189.46875 86.332031 189.664062 L 86.332031 198.472656 C 86.332031 198.667969 86.175781 198.824219 85.980469 198.824219 " fill-opacity="1" fill-rule="nonzero"/><path fill="rgb(10.978699%, 12.939453%, 12.548828%)" d="M 87.574219 197.230469 L 87.34375 197.230469 C 87.171875 197.230469 87.035156 197.089844 87.035156 196.921875 L 87.035156 191.214844 C 87.035156 191.042969 87.171875 190.90625 87.34375 190.90625 L 87.574219 190.90625 C 87.746094 190.90625 87.886719 191.042969 87.886719 191.214844 L 87.886719 196.921875 C 87.886719 197.089844 87.746094 197.230469 87.574219 197.230469 " fill-opacity="1" fill-rule="nonzero"/><path fill="rgb(10.978699%, 12.939453%, 12.548828%)" d="M 89.089844 198.605469 L 88.941406 198.605469 C 88.746094 198.605469 88.589844 198.449219 88.589844 198.257812 L 88.589844 189.878906 C 88.589844 189.6875 88.746094 189.53125 88.941406 189.53125 L 89.089844 189.53125 C 89.285156 189.53125 89.441406 189.6875 89.441406 189.878906 L 89.441406 198.257812 C 89.441406 198.449219 89.285156 198.605469 89.089844 198.605469 " fill-opacity="1" fill-rule="nonzero"/><path fill="rgb(10.978699%, 12.939453%, 12.548828%)" d="M 90.648438 199.523438 L 90.496094 199.523438 C 90.300781 199.523438 90.144531 199.367188 90.144531 199.171875 L 90.144531 188.960938 C 90.144531 188.769531 90.300781 188.613281 90.496094 188.613281 L 90.648438 188.613281 C 90.839844 188.613281 91 188.769531 91 188.960938 L 91 199.171875 C 91 199.367188 90.839844 199.523438 90.648438 199.523438 " fill-opacity="1" fill-rule="nonzero"/><path fill="rgb(10.978699%, 12.939453%, 12.548828%)" d="M 92.160156 202.785156 L 92.09375 202.785156 C 91.875 202.785156 91.699219 202.613281 91.699219 202.394531 L 91.699219 185.742188 C 91.699219 185.523438 91.875 185.351562 92.09375 185.351562 L 92.160156 185.351562 C 92.378906 185.351562 92.554688 185.523438 92.554688 185.742188 L 92.554688 202.394531 C 92.554688 202.613281 92.378906 202.785156 92.160156 202.785156 " fill-opacity="1" fill-rule="nonzero"/><path fill="rgb(10.978699%, 12.939453%, 12.548828%)" d="M 93.71875 200.007812 L 93.648438 200.007812 C 93.433594 200.007812 93.257812 199.832031 93.257812 199.617188 L 93.257812 188.519531 C 93.257812 188.300781 93.433594 188.128906 93.648438 188.128906 L 93.71875 188.128906 C 93.933594 188.128906 94.109375 188.300781 94.109375 188.519531 L 94.109375 199.617188 C 94.109375 199.832031 93.933594 200.007812 93.71875 200.007812 " fill-opacity="1" fill-rule="nonzero"/><path fill="rgb(10.978699%, 12.939453%, 12.548828%)" d="M 95.273438 200.882812 L 95.203125 200.882812 C 94.988281 200.882812 94.8125 200.707031 94.8125 200.492188 L 94.8125 187.644531 C 94.8125 187.429688 94.988281 187.253906 95.203125 187.253906 L 95.273438 187.253906 C 95.488281 187.253906 95.664062 187.429688 95.664062 187.644531 L 95.664062 200.492188 C 95.664062 200.707031 95.488281 200.882812 95.273438 200.882812 " fill-opacity="1" fill-rule="nonzero"/><path fill="rgb(10.978699%, 12.939453%, 12.548828%)" d="M 96.9375 196.707031 L 96.652344 196.707031 C 96.496094 196.707031 96.367188 196.578125 96.367188 196.421875 L 96.367188 191.714844 C 96.367188 191.558594 96.496094 191.429688 96.652344 191.429688 L 96.9375 191.429688 C 97.09375 191.429688 97.222656 191.558594 97.222656 191.714844 L 97.222656 196.421875 C 97.222656 196.578125 97.09375 196.707031 96.9375 196.707031 " fill-opacity="1" fill-rule="nonzero"/><path fill="rgb(10.978699%, 12.939453%, 12.548828%)" d="M 98.425781 198.066406 L 98.273438 198.066406 C 98.082031 198.066406 97.921875 197.910156 97.921875 197.714844 L 97.921875 190.417969 C 97.921875 190.226562 98.082031 190.070312 98.273438 190.070312 L 98.425781 190.070312 C 98.621094 190.070312 98.777344 190.226562 98.777344 190.417969 L 98.777344 197.714844 C 98.777344 197.910156 98.621094 198.066406 98.425781 198.066406 " fill-opacity="1" fill-rule="nonzero"/><path fill="rgb(10.978699%, 12.939453%, 12.548828%)" d="M 99.941406 199.910156 L 99.871094 199.910156 C 99.65625 199.910156 99.480469 199.738281 99.480469 199.519531 L 99.480469 188.617188 C 99.480469 188.398438 99.65625 188.222656 99.871094 188.222656 L 99.941406 188.222656 C 100.15625 188.222656 100.332031 188.398438 100.332031 188.617188 L 100.332031 199.519531 C 100.332031 199.738281 100.15625 199.910156 99.941406 199.910156 " fill-opacity="1" fill-rule="nonzero"/><path fill="rgb(10.978699%, 12.939453%, 12.548828%)" d="M 101.496094 202.011719 L 101.425781 202.011719 C 101.210938 202.011719 101.035156 201.835938 101.035156 201.617188 L 101.035156 186.519531 C 101.035156 186.300781 101.210938 186.125 101.425781 186.125 L 101.496094 186.125 C 101.710938 186.125 101.886719 186.300781 101.886719 186.519531 L 101.886719 201.617188 C 101.886719 201.835938 101.710938 202.011719 101.496094 202.011719 " fill-opacity="1" fill-rule="nonzero"/><path fill="rgb(10.978699%, 12.939453%, 12.548828%)" d="M 103.050781 200.570312 L 102.984375 200.570312 C 102.765625 200.570312 102.589844 200.398438 102.589844 200.179688 L 102.589844 187.957031 C 102.589844 187.738281 102.765625 187.5625 102.984375 187.5625 L 103.050781 187.5625 C 103.269531 187.5625 103.445312 187.738281 103.445312 187.957031 L 103.445312 200.179688 C 103.445312 200.398438 103.269531 200.570312 103.050781 200.570312 " fill-opacity="1" fill-rule="nonzero"/><path fill="rgb(10.978699%, 12.939453%, 12.548828%)" d="M 104.605469 199.367188 L 104.539062 199.367188 C 104.320312 199.367188 104.144531 199.191406 104.144531 198.976562 L 104.144531 189.160156 C 104.144531 188.945312 104.320312 188.769531 104.539062 188.769531 L 104.605469 188.769531 C 104.824219 188.769531 105 188.945312 105 189.160156 L 105 198.976562 C 105 199.191406 104.824219 199.367188 104.605469 199.367188 " fill-opacity="1" fill-rule="nonzero"/><path fill="rgb(10.978699%, 12.939453%, 12.548828%)" d="M 106.21875 197.773438 L 106.039062 197.773438 C 105.851562 197.773438 105.703125 197.625 105.703125 197.4375 L 105.703125 190.699219 C 105.703125 190.511719 105.851562 190.363281 106.039062 190.363281 L 106.21875 190.363281 C 106.402344 190.363281 106.554688 190.511719 106.554688 190.699219 L 106.554688 197.4375 C 106.554688 197.625 106.402344 197.773438 106.21875 197.773438 " fill-opacity="1" fill-rule="nonzero"/><path fill="rgb(10.978699%, 12.939453%, 12.548828%)" d="M 107.71875 199.816406 L 107.648438 199.816406 C 107.433594 199.816406 107.257812 199.640625 107.257812 199.421875 L 107.257812 188.714844 C 107.257812 188.496094 107.433594 188.320312 107.648438 188.320312 L 107.71875 188.320312 C 107.933594 188.320312 108.109375 188.496094 108.109375 188.714844 L 108.109375 199.421875 C 108.109375 199.640625 107.933594 199.816406 107.71875 199.816406 " fill-opacity="1" fill-rule="nonzero"/><path fill="rgb(10.978699%, 12.939453%, 12.548828%)" d="M 109.273438 202.242188 L 109.207031 202.242188 C 108.988281 202.242188 108.8125 202.066406 108.8125 201.851562 L 108.8125 186.285156 C 108.8125 186.070312 108.988281 185.894531 109.207031 185.894531 L 109.273438 185.894531 C 109.492188 185.894531 109.667969 186.070312 109.667969 186.285156 L 109.667969 201.851562 C 109.667969 202.066406 109.492188 202.242188 109.273438 202.242188 " fill-opacity="1" fill-rule="nonzero"/><path fill="rgb(10.978699%, 12.939453%, 12.548828%)" d="M 110.832031 200.921875 L 110.761719 200.921875 C 110.542969 200.921875 110.367188 200.746094 110.367188 200.53125 L 110.367188 187.605469 C 110.367188 187.390625 110.542969 187.214844 110.761719 187.214844 L 110.832031 187.214844 C 111.046875 187.214844 111.222656 187.390625 111.222656 187.605469 L 111.222656 200.53125 C 111.222656 200.746094 111.046875 200.921875 110.832031 200.921875 " fill-opacity="1" fill-rule="nonzero"/><path fill="rgb(10.978699%, 12.939453%, 12.548828%)" d="M 112.421875 198.164062 L 112.28125 198.164062 C 112.082031 198.164062 111.925781 198.003906 111.925781 197.808594 L 111.925781 190.328125 C 111.925781 190.132812 112.082031 189.972656 112.28125 189.972656 L 112.421875 189.972656 C 112.617188 189.972656 112.777344 190.132812 112.777344 190.328125 L 112.777344 197.808594 C 112.777344 198.003906 112.617188 198.164062 112.421875 198.164062 " fill-opacity="1" fill-rule="nonzero"/><path fill="rgb(10.978699%, 12.939453%, 12.548828%)" d="M 113.941406 201.445312 L 113.871094 201.445312 C 113.65625 201.445312 113.480469 201.269531 113.480469 201.054688 L 113.480469 187.082031 C 113.480469 186.863281 113.65625 186.691406 113.871094 186.691406 L 113.941406 186.691406 C 114.160156 186.691406 114.332031 186.863281 114.332031 187.082031 L 114.332031 201.054688 C 114.332031 201.269531 114.160156 201.445312 113.941406 201.445312 " fill-opacity="1" fill-rule="nonzero"/><path fill="rgb(10.978699%, 12.939453%, 12.548828%)" d="M 115.613281 196.570312 L 115.3125 196.570312 C 115.160156 196.570312 115.035156 196.445312 115.035156 196.292969 L 115.035156 191.84375 C 115.035156 191.691406 115.160156 191.566406 115.3125 191.566406 L 115.613281 191.566406 C 115.765625 191.566406 115.890625 191.691406 115.890625 191.84375 L 115.890625 196.292969 C 115.890625 196.445312 115.765625 196.570312 115.613281 196.570312 " fill-opacity="1" fill-rule="nonzero"/><g fill="rgb(100%, 100%, 100%)" fill-opacity="1"><g transform="translate(147.810725, 197.83324)"><g><path d="M 23.117188 -22.941406 L 19.773438 -22.941406 C 18.625 -22.941406 18.453125 -22.175781 18.207031 -21.757812 L 13.402344 -13.195312 L 8.632812 -21.757812 C 8.355469 -22.175781 8.214844 -22.941406 7.03125 -22.941406 L 3.585938 -22.941406 C 2.785156 -22.941406 2.578125 -22.558594 2.578125 -21.933594 L 2.578125 -1.007812 C 2.578125 -0.207031 2.960938 0 3.585938 0 L 7.03125 0 C 7.660156 0 8.042969 -0.207031 8.042969 -1.007812 L 8.042969 -12.8125 L 11.558594 -6.71875 C 11.734375 -6.441406 12.011719 -5.988281 12.53125 -5.988281 L 14.273438 -5.988281 C 14.796875 -5.988281 15.109375 -6.441406 15.285156 -6.71875 L 18.765625 -12.8125 L 18.765625 -1.007812 C 18.765625 -0.207031 19.148438 0 19.773438 0 L 23.117188 0 C 23.742188 0 24.125 -0.207031 24.125 -1.007812 L 24.125 -21.933594 C 24.125 -22.558594 23.917969 -22.941406 23.117188 -22.941406 Z M 23.117188 -22.941406 "/></g></g></g><g fill="rgb(100%, 100%, 100%)" fill-opacity="1"><g transform="translate(174.508096, 197.83324)"><g><path d="M 20.019531 -22.90625 L 16.257812 -22.90625 C 15.457031 -22.90625 15.109375 -22.804688 14.65625 -21.863281 L 10.722656 -14.378906 L 6.648438 -21.863281 C 6.164062 -22.804688 5.8125 -22.90625 5.011719 -22.90625 L 1.007812 -22.90625 C 0.347656 -22.90625 0.277344 -22.316406 0.453125 -21.933594 L 7.902344 -8.597656 L 7.902344 -1.007812 C 7.902344 -0.207031 8.25 0 8.914062 0 L 12.394531 0 C 13.019531 0 13.402344 -0.207031 13.402344 -1.007812 L 13.402344 -8.597656 L 20.574219 -21.933594 C 20.75 -22.316406 20.679688 -22.90625 20.019531 -22.90625 Z M 20.019531 -22.90625 "/></g></g></g><g fill="rgb(100%, 100%, 100%)" fill-opacity="1"><g transform="translate(195.531845, 197.83324)"><g><path d="M 23.117188 -22.941406 L 19.773438 -22.941406 C 18.625 -22.941406 18.453125 -22.175781 18.207031 -21.757812 L 13.402344 -13.195312 L 8.632812 -21.757812 C 8.355469 -22.175781 8.214844 -22.941406 7.03125 -22.941406 L 3.585938 -22.941406 C 2.785156 -22.941406 2.578125 -22.558594 2.578125 -21.933594 L 2.578125 -1.007812 C 2.578125 -0.207031 2.960938 0 3.585938 0 L 7.03125 0 C 7.660156 0 8.042969 -0.207031 8.042969 -1.007812 L 8.042969 -12.8125 L 11.558594 -6.71875 C 11.734375 -6.441406 12.011719 -5.988281 12.53125 -5.988281 L 14.273438 -5.988281 C 14.796875 -5.988281 15.109375 -6.441406 15.285156 -6.71875 L 18.765625 -12.8125 L 18.765625 -1.007812 C 18.765625 -0.207031 19.148438 0 19.773438 0 L 23.117188 0 C 23.742188 0 24.125 -0.207031 24.125 -1.007812 L 24.125 -21.933594 C 24.125 -22.558594 23.917969 -22.941406 23.117188 -22.941406 Z M 23.117188 -22.941406 "/></g></g></g><g fill="rgb(100%, 100%, 100%)" fill-opacity="1"><g transform="translate(222.229216, 197.83324)"><g><path d="M 19.703125 -22.90625 L 16.257812 -22.90625 C 15.632812 -22.90625 15.25 -22.699219 15.25 -21.898438 L 15.25 -7.761719 C 15.25 -5.570312 13.785156 -4.316406 11.488281 -4.316406 C 9.191406 -4.316406 7.761719 -5.570312 7.761719 -7.761719 L 7.761719 -21.898438 C 7.761719 -22.699219 7.378906 -22.90625 6.753906 -22.90625 L 3.308594 -22.90625 C 2.679688 -22.90625 2.296875 -22.699219 2.296875 -21.898438 L 2.296875 -6.996094 C 2.296875 -1.53125 7.347656 0.523438 11.488281 0.523438 C 15.632812 0.523438 20.714844 -1.53125 20.714844 -6.996094 L 20.714844 -21.898438 C 20.714844 -22.699219 20.332031 -22.90625 19.703125 -22.90625 Z M 19.703125 -22.90625 "/></g></g></g><g fill="rgb(100%, 100%, 100%)" fill-opacity="1"><g transform="translate(245.236989, 197.83324)"><g><path d="M 13.367188 -13.300781 C 11.976562 -13.855469 6.859375 -14.621094 6.859375 -16.746094 C 6.859375 -18.3125 8.773438 -18.765625 9.921875 -18.765625 C 10.964844 -18.765625 12.21875 -18.453125 12.882812 -17.824219 C 13.300781 -17.40625 13.472656 -17.128906 13.613281 -16.78125 C 13.785156 -16.328125 13.890625 -15.839844 14.550781 -15.839844 L 17.964844 -15.839844 C 18.765625 -15.839844 18.972656 -15.980469 18.972656 -16.816406 C 18.972656 -21.410156 14.132812 -23.429688 9.714844 -23.429688 C 5.363281 -23.257812 1.253906 -21.027344 1.253906 -16.503906 C 1.253906 -12.082031 4.492188 -10.6875 8.007812 -9.574219 C 10.964844 -8.632812 14.066406 -8.597656 14.066406 -6.648438 C 14.066406 -4.699219 12.53125 -4.28125 10.652344 -4.28125 C 9.363281 -4.28125 7.9375 -4.59375 7.242188 -5.429688 C 6.789062 -5.953125 6.613281 -6.40625 6.578125 -6.859375 C 6.511719 -7.730469 6.128906 -7.832031 5.328125 -7.832031 L 1.949219 -7.832031 C 1.148438 -7.832031 0.941406 -7.660156 0.941406 -6.859375 C 0.941406 -1.984375 5.953125 0.523438 10.304688 0.523438 C 15.667969 0.523438 19.566406 -1.84375 19.566406 -6.789062 C 19.566406 -11.523438 15.875 -12.53125 13.367188 -13.300781 Z M 13.367188 -13.300781 "/></g></g></g><g fill="rgb(100%, 100%, 100%)" fill-opacity="1"><g transform="translate(266.295544, 197.83324)"><g><path d="M 12.53125 -4.769531 L 10.339844 -4.769531 L 10.339844 -18.070312 L 12.429688 -18.070312 C 13.230469 -18.070312 13.4375 -18.453125 13.4375 -19.078125 L 13.4375 -21.898438 C 13.4375 -22.523438 13.230469 -22.90625 12.429688 -22.90625 L 2.75 -22.90625 C 1.949219 -22.90625 1.742188 -22.523438 1.742188 -21.898438 L 1.742188 -19.078125 C 1.742188 -18.453125 1.949219 -18.070312 2.75 -18.070312 L 4.875 -18.070312 L 4.875 -4.769531 L 2.679688 -4.769531 C 1.878906 -4.769531 1.671875 -4.386719 1.671875 -3.761719 L 1.671875 -1.007812 C 1.671875 -0.382812 1.878906 0 2.679688 0 L 12.53125 0 C 13.332031 0 13.542969 -0.382812 13.542969 -1.007812 L 13.542969 -3.761719 C 13.542969 -4.386719 13.332031 -4.769531 12.53125 -4.769531 Z M 12.53125 -4.769531 "/></g></g></g><g fill="rgb(100%, 100%, 100%)" fill-opacity="1"><g transform="translate(281.750089, 197.83324)"><g><path d="M 21.65625 -22.90625 L 16.953125 -22.90625 C 16.152344 -22.90625 15.910156 -22.839844 15.214844 -22.074219 L 8.007812 -14.132812 L 8.007812 -21.898438 C 8.007812 -22.699219 7.625 -22.90625 7.03125 -22.90625 L 3.585938 -22.90625 C 2.925781 -22.90625 2.578125 -22.699219 2.578125 -21.898438 L 2.578125 -1.007812 C 2.578125 -0.207031 2.925781 0 3.585938 0 L 7.03125 0 C 7.625 0 8.007812 -0.207031 8.007812 -1.007812 L 8.007812 -7.207031 L 10.164062 -9.46875 C 12.046875 -6.335938 15.144531 -1.113281 15.144531 -1.113281 C 15.597656 -0.382812 16.050781 0 16.886719 0 L 21.132812 0 C 21.792969 0 21.933594 -0.660156 21.65625 -1.113281 L 14.167969 -13.4375 L 22.003906 -21.933594 C 22.316406 -22.246094 22.316406 -22.90625 21.65625 -22.90625 Z M 21.65625 -22.90625 "/></g></g></g></svg>